<svg width="218" height="36" viewBox="0 0 218 36" fill="none" xmlns="http://www.w3.org/2000/svg">
<path d="M56.54 7.616H52.211L52.224 15H50.131V5.9H56.553L56.54 7.616ZM62.2344 13.05H58.0094L57.2034 15H55.0454L59.1014 5.9H61.1814L65.2504 15H63.0404L62.2344 13.05ZM61.5714 11.451L60.1284 7.967L58.6854 11.451H61.5714ZM75.9193 13.284V16.885H73.9693V15H67.5473V16.885H65.5973L65.6103 13.284H65.9743C66.5203 13.2667 66.906 12.868 67.1313 12.088C67.3567 11.308 67.4953 10.1943 67.5473 8.747L67.6513 5.9H74.6453V13.284H75.9193ZM69.4063 8.942C69.363 10.0253 69.272 10.9353 69.1333 11.672C68.9947 12.4 68.7823 12.9373 68.4963 13.284H72.5653V7.616H69.4453L69.4063 8.942ZM85.5921 11.334H84.2661V15H82.1991V11.334H80.8471L78.8061 15H76.3751L79.1051 10.242L76.5441 5.9H78.7671L80.8081 9.579H82.1991V5.9H84.2661V9.579H85.6181L87.6721 5.9H89.8951L87.3471 10.242L90.0641 15H87.6331L85.5921 11.334ZM98.1194 13.31V15H91.0734V5.9H97.9504V7.59H93.1664V9.566H97.3914V11.204H93.1664V13.31H98.1194ZM106.775 7.616H103.863V15H101.783V7.616H98.8845V5.9H106.775V7.616ZM113.803 13.05H109.578L108.772 15H106.614L110.67 5.9H112.75L116.819 15H114.609L113.803 13.05ZM113.14 11.451L111.697 7.967L110.254 11.451H113.14ZM121.965 5.9C122.771 5.9 123.468 6.03433 124.058 6.303C124.656 6.57167 125.115 6.953 125.436 7.447C125.756 7.941 125.917 8.526 125.917 9.202C125.917 9.86933 125.756 10.4543 125.436 10.957C125.115 11.451 124.656 11.8323 124.058 12.101C123.468 12.361 122.771 12.491 121.965 12.491H120.132V15H118.026V5.9H121.965ZM121.848 10.775C122.48 10.775 122.961 10.6407 123.291 10.372C123.62 10.0947 123.785 9.70467 123.785 9.202C123.785 8.69067 123.62 8.30067 123.291 8.032C122.961 7.75467 122.48 7.616 121.848 7.616H120.132V10.775H121.848ZM127.306 5.9H129.399V11.828L133.741 5.9H135.717V15H133.637V9.085L129.295 15H127.306V5.9ZM146.199 5.9L142.325 13.102C141.952 13.7953 141.501 14.3197 140.973 14.675C140.453 15.0303 139.885 15.208 139.27 15.208C138.793 15.208 138.299 15.104 137.788 14.896L138.295 13.297C138.659 13.4097 138.962 13.466 139.205 13.466C139.465 13.466 139.699 13.4053 139.907 13.284C140.115 13.154 140.305 12.9547 140.479 12.686L140.557 12.582L136.969 5.9H139.218L141.636 10.788L144.132 5.9H146.199ZM155.48 15L155.467 9.553L152.789 14.038H151.853L149.175 9.657V15H147.199V5.9H148.941L152.347 11.555L155.701 5.9H157.443L157.456 15H155.48Z" fill="#3145FF"/>
<path d="M58.295 23.3V31H57.514V24.84L54.489 30.021H54.104L51.079 24.873V31H50.298V23.3H50.969L54.313 29.009L57.624 23.3H58.295ZM62.6938 25.17C63.4491 25.17 64.0285 25.3607 64.4318 25.742C64.8351 26.116 65.0368 26.6733 65.0368 27.414V31H64.2888V30.098C64.1128 30.3987 63.8525 30.6333 63.5078 30.802C63.1705 30.9707 62.7671 31.055 62.2978 31.055C61.6525 31.055 61.1391 30.901 60.7578 30.593C60.3765 30.285 60.1858 29.878 60.1858 29.372C60.1858 28.8807 60.3618 28.4847 60.7138 28.184C61.0731 27.8833 61.6415 27.733 62.4188 27.733H64.2558V27.381C64.2558 26.8823 64.1165 26.5047 63.8378 26.248C63.5591 25.984 63.1521 25.852 62.6168 25.852C62.2501 25.852 61.8981 25.9143 61.5608 26.039C61.2235 26.1563 60.9338 26.3213 60.6918 26.534L60.3398 25.951C60.6331 25.7017 60.9851 25.511 61.3958 25.379C61.8065 25.2397 62.2391 25.17 62.6938 25.17ZM62.4188 30.439C62.8588 30.439 63.2365 30.34 63.5518 30.142C63.8671 29.9367 64.1018 29.6433 64.2558 29.262V28.316H62.4408C61.4508 28.316 60.9558 28.6607 60.9558 29.35C60.9558 29.6873 61.0841 29.955 61.3408 30.153C61.5975 30.3437 61.9568 30.439 62.4188 30.439ZM71.2079 25.907H67.8969V31H67.1159V25.214H71.2079V25.907ZM74.3276 25.17C75.0829 25.17 75.6623 25.3607 76.0656 25.742C76.4689 26.116 76.6706 26.6733 76.6706 27.414V31H75.9226V30.098C75.7466 30.3987 75.4863 30.6333 75.1416 30.802C74.8043 30.9707 74.4009 31.055 73.9316 31.055C73.2863 31.055 72.7729 30.901 72.3916 30.593C72.0103 30.285 71.8196 29.878 71.8196 29.372C71.8196 28.8807 71.9956 28.4847 72.3476 28.184C72.7069 27.8833 73.2753 27.733 74.0526 27.733H75.8896V27.381C75.8896 26.8823 75.7503 26.5047 75.4716 26.248C75.1929 25.984 74.7859 25.852 74.2506 25.852C73.8839 25.852 73.5319 25.9143 73.1946 26.039C72.8573 26.1563 72.5676 26.3213 72.3256 26.534L71.9736 25.951C72.2669 25.7017 72.6189 25.511 73.0296 25.379C73.4403 25.2397 73.8729 25.17 74.3276 25.17ZM74.0526 30.439C74.4926 30.439 74.8703 30.34 75.1856 30.142C75.5009 29.9367 75.7356 29.6433 75.8896 29.262V28.316H74.0746C73.0846 28.316 72.5896 28.6607 72.5896 29.35C72.5896 29.6873 72.7179 29.955 72.9746 30.153C73.2313 30.3437 73.5906 30.439 74.0526 30.439ZM81.4475 27.986C81.8582 28.0813 82.1735 28.2463 82.3935 28.481C82.6208 28.7157 82.7345 29.0017 82.7345 29.339C82.7345 29.6763 82.6172 29.977 82.3825 30.241C82.1552 30.505 81.8435 30.7103 81.4475 30.857C81.0515 30.9963 80.6152 31.066 80.1385 31.066C79.7205 31.066 79.3098 31.0073 78.9065 30.89C78.5032 30.7653 78.1512 30.5857 77.8505 30.351L78.1145 29.768C78.3785 29.966 78.6865 30.12 79.0385 30.23C79.3905 30.34 79.7462 30.395 80.1055 30.395C80.6408 30.395 81.0772 30.296 81.4145 30.098C81.7592 29.8927 81.9315 29.6177 81.9315 29.273C81.9315 28.965 81.7922 28.7267 81.5135 28.558C81.2348 28.382 80.8535 28.294 80.3695 28.294H79.3795V27.722H80.3255C80.7582 27.722 81.1065 27.6413 81.3705 27.48C81.6345 27.3113 81.7665 27.0877 81.7665 26.809C81.7665 26.501 81.6162 26.259 81.3155 26.083C81.0222 25.907 80.6372 25.819 80.1605 25.819C79.5372 25.819 78.9212 25.9767 78.3125 26.292L78.0925 25.687C78.7818 25.3277 79.4968 25.148 80.2375 25.148C80.6775 25.148 81.0735 25.214 81.4255 25.346C81.7848 25.4707 82.0635 25.6503 82.2615 25.885C82.4668 26.1197 82.5695 26.391 82.5695 26.699C82.5695 26.9923 82.4668 27.2527 82.2615 27.48C82.0635 27.7073 81.7922 27.876 81.4475 27.986ZM84.5075 25.214H85.2885V29.812L89.1495 25.214H89.8425V31H89.0615V26.402L85.2115 31H84.5075V25.214ZM92.0807 25.214H92.8617V27.777H96.5027V25.214H97.2837V31H96.5027V28.448H92.8617V31H92.0807V25.214ZM108.41 30.318V32.452H107.673V31H102.382V25.214H103.163V30.318H106.694V25.214H107.475V30.318H108.41ZM109.902 25.214H110.683V29.812L114.544 25.214H115.237V31H114.456V26.402L110.606 31H109.902V25.214ZM124.46 28.096C124.46 28.998 124.163 29.7057 123.569 30.219C122.975 30.7323 122.136 31.011 121.05 31.055V33.134H120.291V31.066C119.213 31.022 118.377 30.7433 117.783 30.23C117.197 29.7093 116.903 28.998 116.903 28.096C116.903 27.2013 117.197 26.501 117.783 25.995C118.377 25.489 119.213 25.214 120.291 25.17V22.838H121.05V25.17C122.136 25.2213 122.975 25.5 123.569 26.006C124.163 26.512 124.46 27.2087 124.46 28.096ZM117.673 28.096C117.673 28.7853 117.893 29.3243 118.333 29.713C118.781 30.1017 119.433 30.3217 120.291 30.373V25.863C119.441 25.907 118.792 26.1233 118.344 26.512C117.897 26.8933 117.673 27.4213 117.673 28.096ZM121.05 30.373C121.908 30.329 122.561 30.1127 123.008 29.724C123.463 29.3353 123.69 28.7927 123.69 28.096C123.69 27.414 123.463 26.8823 123.008 26.501C122.561 26.1197 121.908 25.907 121.05 25.863V30.373ZM129.093 25.17C129.636 25.17 130.127 25.2947 130.567 25.544C131.007 25.786 131.352 26.1307 131.601 26.578C131.85 27.0253 131.975 27.535 131.975 28.107C131.975 28.6863 131.85 29.1997 131.601 29.647C131.352 30.0943 131.007 30.4427 130.567 30.692C130.134 30.934 129.643 31.055 129.093 31.055C128.624 31.055 128.198 30.9597 127.817 30.769C127.443 30.571 127.135 30.285 126.893 29.911V33.134H126.112V25.214H126.86V26.358C127.095 25.9767 127.403 25.6833 127.784 25.478C128.173 25.2727 128.609 25.17 129.093 25.17ZM129.038 30.362C129.441 30.362 129.808 30.2703 130.138 30.087C130.468 29.8963 130.725 29.6287 130.908 29.284C131.099 28.9393 131.194 28.547 131.194 28.107C131.194 27.667 131.099 27.2783 130.908 26.941C130.725 26.5963 130.468 26.3287 130.138 26.138C129.808 25.9473 129.441 25.852 129.038 25.852C128.627 25.852 128.257 25.9473 127.927 26.138C127.604 26.3287 127.348 26.5963 127.157 26.941C126.974 27.2783 126.882 27.667 126.882 28.107C126.882 28.547 126.974 28.9393 127.157 29.284C127.348 29.6287 127.604 29.8963 127.927 30.087C128.257 30.2703 128.627 30.362 129.038 30.362ZM136.04 31.055C135.483 31.055 134.98 30.9303 134.533 30.681C134.086 30.4243 133.734 30.0723 133.477 29.625C133.22 29.1777 133.092 28.6717 133.092 28.107C133.092 27.5423 133.22 27.0363 133.477 26.589C133.734 26.1417 134.086 25.7933 134.533 25.544C134.98 25.2947 135.483 25.17 136.04 25.17C136.597 25.17 137.1 25.2947 137.547 25.544C137.994 25.7933 138.343 26.1417 138.592 26.589C138.849 27.0363 138.977 27.5423 138.977 28.107C138.977 28.6717 138.849 29.1777 138.592 29.625C138.343 30.0723 137.994 30.4243 137.547 30.681C137.1 30.9303 136.597 31.055 136.04 31.055ZM136.04 30.362C136.451 30.362 136.817 30.2703 137.14 30.087C137.47 29.8963 137.727 29.6287 137.91 29.284C138.093 28.9393 138.185 28.547 138.185 28.107C138.185 27.667 138.093 27.2747 137.91 26.93C137.727 26.5853 137.47 26.3213 137.14 26.138C136.817 25.9473 136.451 25.852 136.04 25.852C135.629 25.852 135.259 25.9473 134.929 26.138C134.606 26.3213 134.35 26.5853 134.159 26.93C133.976 27.2747 133.884 27.667 133.884 28.107C133.884 28.547 133.976 28.9393 134.159 29.284C134.35 29.6287 134.606 29.8963 134.929 30.087C135.259 30.2703 135.629 30.362 136.04 30.362ZM144.331 28.008C145.116 28.1913 145.508 28.6643 145.508 29.427C145.508 29.933 145.321 30.3217 144.947 30.593C144.573 30.8643 144.016 31 143.275 31H140.646V25.214H143.198C143.858 25.214 144.375 25.3423 144.749 25.599C145.123 25.8557 145.31 26.2223 145.31 26.699C145.31 27.0143 145.222 27.2857 145.046 27.513C144.877 27.733 144.639 27.898 144.331 28.008ZM141.405 27.788H143.143C143.59 27.788 143.931 27.7037 144.166 27.535C144.408 27.3663 144.529 27.1207 144.529 26.798C144.529 26.4753 144.408 26.2333 144.166 26.072C143.931 25.9107 143.59 25.83 143.143 25.83H141.405V27.788ZM143.242 30.384C143.741 30.384 144.115 30.3033 144.364 30.142C144.613 29.9807 144.738 29.7277 144.738 29.383C144.738 29.0383 144.624 28.7853 144.397 28.624C144.17 28.4553 143.81 28.371 143.319 28.371H141.405V30.384H143.242ZM149.77 27.26C150.496 27.2673 151.049 27.4287 151.431 27.744C151.812 28.0593 152.003 28.514 152.003 29.108C152.003 29.724 151.797 30.197 151.387 30.527C150.976 30.857 150.389 31.0183 149.627 31.011L147.339 31V25.214H148.12V27.238L149.77 27.26ZM152.971 25.214H153.752V31H152.971V25.214ZM149.583 30.417C150.118 30.4243 150.521 30.318 150.793 30.098C151.071 29.8707 151.211 29.5407 151.211 29.108C151.211 28.6827 151.075 28.3673 150.804 28.162C150.532 27.9567 150.125 27.8503 149.583 27.843L148.12 27.821V30.395L149.583 30.417ZM159.594 31L157.757 28.58L155.909 31H155.029L157.317 28.03L155.139 25.214H156.019L157.757 27.48L159.495 25.214H160.353L158.175 28.03L160.485 31H159.594ZM167.625 25.17C168.168 25.17 168.659 25.2947 169.099 25.544C169.539 25.786 169.884 26.1307 170.133 26.578C170.383 27.0253 170.507 27.535 170.507 28.107C170.507 28.6863 170.383 29.1997 170.133 29.647C169.884 30.0943 169.539 30.4427 169.099 30.692C168.667 30.934 168.175 31.055 167.625 31.055C167.156 31.055 166.731 30.9597 166.349 30.769C165.975 30.571 165.667 30.285 165.425 29.911V33.134H164.644V25.214H165.392V26.358C165.627 25.9767 165.935 25.6833 166.316 25.478C166.705 25.2727 167.141 25.17 167.625 25.17ZM167.57 30.362C167.974 30.362 168.34 30.2703 168.67 30.087C169 29.8963 169.257 29.6287 169.44 29.284C169.631 28.9393 169.726 28.547 169.726 28.107C169.726 27.667 169.631 27.2783 169.44 26.941C169.257 26.5963 169 26.3287 168.67 26.138C168.34 25.9473 167.974 25.852 167.57 25.852C167.16 25.852 166.789 25.9473 166.459 26.138C166.137 26.3287 165.88 26.5963 165.689 26.941C165.506 27.2783 165.414 27.667 165.414 28.107C165.414 28.547 165.506 28.9393 165.689 29.284C165.88 29.6287 166.137 29.8963 166.459 30.087C166.789 30.2703 167.16 30.362 167.57 30.362ZM177.245 28.349H172.405C172.449 28.9503 172.68 29.438 173.098 29.812C173.516 30.1787 174.044 30.362 174.682 30.362C175.042 30.362 175.372 30.2997 175.672 30.175C175.973 30.043 176.233 29.8523 176.453 29.603L176.893 30.109C176.637 30.417 176.314 30.6517 175.925 30.813C175.544 30.9743 175.122 31.055 174.66 31.055C174.066 31.055 173.538 30.9303 173.076 30.681C172.622 30.4243 172.266 30.0723 172.009 29.625C171.753 29.1777 171.624 28.6717 171.624 28.107C171.624 27.5423 171.745 27.0363 171.987 26.589C172.237 26.1417 172.574 25.7933 172.999 25.544C173.432 25.2947 173.916 25.17 174.451 25.17C174.987 25.17 175.467 25.2947 175.892 25.544C176.318 25.7933 176.651 26.1417 176.893 26.589C177.135 27.029 177.256 27.535 177.256 28.107L177.245 28.349ZM174.451 25.841C173.894 25.841 173.425 26.0207 173.043 26.38C172.669 26.732 172.457 27.194 172.405 27.766H176.508C176.457 27.194 176.241 26.732 175.859 26.38C175.485 26.0207 175.016 25.841 174.451 25.841ZM186.971 25.214V31H178.985V25.214H179.766V30.318H182.604V25.214H183.385V30.318H186.19V25.214H186.971ZM194.261 28.349H189.421C189.465 28.9503 189.696 29.438 190.114 29.812C190.532 30.1787 191.06 30.362 191.698 30.362C192.057 30.362 192.387 30.2997 192.688 30.175C192.989 30.043 193.249 29.8523 193.469 29.603L193.909 30.109C193.652 30.417 193.33 30.6517 192.941 30.813C192.56 30.9743 192.138 31.055 191.676 31.055C191.082 31.055 190.554 30.9303 190.092 30.681C189.637 30.4243 189.282 30.0723 189.025 29.625C188.768 29.1777 188.64 28.6717 188.64 28.107C188.64 27.5423 188.761 27.0363 189.003 26.589C189.252 26.1417 189.59 25.7933 190.015 25.544C190.448 25.2947 190.932 25.17 191.467 25.17C192.002 25.17 192.483 25.2947 192.908 25.544C193.333 25.7933 193.667 26.1417 193.909 26.589C194.151 27.029 194.272 27.535 194.272 28.107L194.261 28.349ZM191.467 25.841C190.91 25.841 190.44 26.0207 190.059 26.38C189.685 26.732 189.472 27.194 189.421 27.766H193.524C193.473 27.194 193.256 26.732 192.875 26.38C192.501 26.0207 192.032 25.841 191.467 25.841ZM196.001 25.214H196.782V27.777H200.423V25.214H201.204V31H200.423V28.448H196.782V31H196.001V25.214ZM203.424 25.214H204.205V29.812L208.066 25.214H208.759V31H207.978V26.402L204.128 31H203.424V25.214ZM210.997 25.214H211.778V29.812L215.639 25.214H216.332V31H215.551V26.402L211.701 31H210.997V25.214ZM213.626 24.378C213.127 24.378 212.731 24.2533 212.438 24.004C212.144 23.7547 211.994 23.4027 211.987 22.948H212.548C212.555 23.234 212.658 23.465 212.856 23.641C213.054 23.8097 213.31 23.894 213.626 23.894C213.941 23.894 214.198 23.8097 214.396 23.641C214.601 23.465 214.707 23.234 214.715 22.948H215.276C215.268 23.4027 215.114 23.7547 214.814 24.004C214.52 24.2533 214.124 24.378 213.626 24.378Z" fill="#2A2D46"/>
<g clip-path="url(#clip0_20_568)">
<path d="M35.6907 0.308962C35.2787 -0.102999 34.6112 -0.102999 34.1993 0.309032L29.9541 4.55415C28.7818 4.02786 27.3162 4.20702 26.3845 5.14098L24.7685 6.75599C24.7625 6.76203 24.7608 6.77026 24.7549 6.77645C25.6507 7.3303 26.4953 7.97865 27.2579 8.74175C28.028 9.51153 28.6738 10.3568 29.222 11.2456C29.2285 11.2394 29.2373 11.2376 29.2437 11.2312L30.8587 9.61616C31.8287 8.6462 32.0104 7.21309 31.4538 6.03725L35.6906 1.80043C36.1026 1.3884 36.1026 0.720923 35.6907 0.308962Z" fill="#3145FF"/>
<path d="M26.4367 11.0543L21.8861 15.6049C22.4401 16.7788 22.2607 18.2131 21.2913 19.1825L18.3085 22.1653C17.0697 23.404 15.068 23.3999 13.8342 22.1663V22.1653H13.8332C12.5996 20.9316 12.5954 18.9298 13.8342 17.691L16.817 14.7082C17.7865 13.7387 19.2207 13.5594 20.3946 14.1134L24.9453 9.56273C20.3919 5.77647 13.6273 5.96673 9.35893 10.2329L3.39235 16.1997C-1.13029 20.7224 -1.13128 28.0836 3.39235 32.6073C7.91541 37.1303 15.2756 37.1315 19.7999 32.6073L25.7666 26.6406C30.0338 22.3734 30.2233 15.6077 26.4367 11.0543Z" fill="#3145FF"/>
<path d="M19.8001 16.1998C19.3858 15.7875 18.723 15.7875 18.3087 16.1998L15.3259 19.1826C14.912 19.5985 14.915 20.264 15.3259 20.6729C15.3259 20.674 15.3259 20.674 15.327 20.674C15.7245 21.0746 16.4178 21.0726 16.8173 20.674L19.8001 17.6912C20.2124 17.2769 20.2124 16.614 19.8001 16.1998Z" fill="#3145FF"/>
</g>
<defs>
<clipPath id="clip0_20_568">
<rect width="36" height="36" fill="white"/>
</clipPath>
</defs>
</svg>
