<svg width="218" height="36" fill="none" xmlns="http://www.w3.org/2000/svg"><path d="M56.54 7.616h-4.329L52.224 15h-2.093V5.9h6.422l-.013 1.716Zm5.694 5.434H58.01L57.203 15h-2.158l4.056-9.1h2.08l4.07 9.1h-2.21l-.807-1.95Zm-.663-1.599-1.443-3.484-1.443 3.484h2.886Zm14.348 1.833v3.601h-1.95V15h-6.422v1.885h-1.95l.013-3.601h.364c.546-.017.932-.416 1.157-1.196.226-.78.364-1.894.416-3.341l.104-2.847h6.994v7.384h1.274Zm-6.513-4.342c-.043 1.083-.134 1.993-.273 2.73-.138.728-.35 1.265-.637 1.612h4.07V7.616h-3.12l-.04 1.326Zm16.186 2.392h-1.326V15H82.2v-3.666h-1.352L78.807 15h-2.432l2.73-4.758-2.56-4.342h2.222l2.041 3.679H82.2V5.9h2.067v3.679h1.352L87.672 5.9h2.223l-2.548 4.342L90.064 15h-2.43l-2.042-3.666ZM98.12 13.31V15h-7.046V5.9h6.877v1.69h-4.784v1.976h4.225v1.638h-4.225v2.106h4.953Zm8.656-5.694h-2.912V15h-2.08V7.616h-2.898V5.9h7.89v1.716Zm7.028 5.434h-4.225l-.806 1.95h-2.158l4.056-9.1h2.08l4.069 9.1h-2.21l-.806-1.95Zm-.663-1.599-1.443-3.484-1.443 3.484h2.886Zm8.825-5.551c.806 0 1.503.134 2.093.403.598.269 1.057.65 1.378 1.144.32.494.481 1.079.481 1.755 0 .667-.161 1.252-.481 1.755-.321.494-.78.875-1.378 1.144-.59.26-1.287.39-2.093.39h-1.833V15h-2.106V5.9h3.939Zm-.117 4.875c.632 0 1.113-.134 1.443-.403.329-.277.494-.667.494-1.17 0-.511-.165-.901-.494-1.17-.33-.277-.811-.416-1.443-.416h-1.716v3.159h1.716Zm5.458-4.875h2.093v5.928l4.342-5.928h1.976V15h-2.08V9.085L129.295 15h-1.989V5.9Zm18.893 0-3.874 7.202c-.373.693-.824 1.218-1.352 1.573a2.957 2.957 0 0 1-1.703.533c-.477 0-.971-.104-1.482-.312l.507-1.599c.364.113.667.169.91.169.26 0 .494-.06.702-.182.208-.13.398-.33.572-.598l.078-.104-3.588-6.682h2.249l2.418 4.888 2.496-4.888h2.067Zm9.281 9.1-.013-5.447-2.678 4.485h-.936l-2.678-4.381V15h-1.976V5.9h1.742l3.406 5.655 3.354-5.655h1.742l.013 9.1h-1.976Z" fill="#3145FF"/><path d="M58.295 23.3V31h-.781v-6.16l-3.025 5.181h-.385l-3.025-5.148V31h-.781v-7.7h.671l3.344 5.709 3.311-5.709h.671Zm4.399 1.87c.755 0 1.334.19 1.738.572.403.374.605.931.605 1.672V31h-.748v-.902c-.176.3-.437.535-.781.704-.338.169-.74.253-1.21.253-.645 0-1.159-.154-1.54-.462-.382-.308-.572-.715-.572-1.221 0-.491.176-.887.528-1.188.36-.3.928-.451 1.705-.451h1.837v-.352c0-.499-.14-.876-.418-1.133-.279-.264-.686-.396-1.221-.396a3.02 3.02 0 0 0-1.056.187 2.586 2.586 0 0 0-.87.495l-.351-.583a3.05 3.05 0 0 1 1.056-.572c.41-.14.843-.209 1.298-.209Zm-.275 5.269c.44 0 .818-.099 1.133-.297.315-.205.55-.499.704-.88v-.946H62.44c-.99 0-1.485.345-1.485 1.034a.96.96 0 0 0 .385.803c.256.19.616.286 1.078.286Zm8.789-4.532h-3.311V31h-.781v-5.786h4.092v.693Zm3.12-.737c.755 0 1.334.19 1.738.572.403.374.605.931.605 1.672V31h-.748v-.902c-.176.3-.437.535-.781.704-.338.169-.741.253-1.21.253-.646 0-1.16-.154-1.54-.462-.382-.308-.572-.715-.572-1.221 0-.491.176-.887.528-1.188.359-.3.927-.451 1.705-.451h1.837v-.352c0-.499-.14-.876-.418-1.133-.28-.264-.686-.396-1.221-.396a3.02 3.02 0 0 0-1.056.187 2.586 2.586 0 0 0-.87.495l-.351-.583a3.05 3.05 0 0 1 1.056-.572c.41-.14.843-.209 1.298-.209Zm-.275 5.269c.44 0 .817-.099 1.133-.297.315-.205.55-.499.704-.88v-.946h-1.815c-.99 0-1.485.345-1.485 1.034a.96.96 0 0 0 .385.803c.256.19.616.286 1.078.286Zm7.395-2.453c.41.095.726.26.946.495.227.235.34.52.34.858 0 .337-.117.638-.352.902-.227.264-.538.47-.934.616-.396.14-.833.209-1.31.209a4.39 4.39 0 0 1-1.232-.176 3.265 3.265 0 0 1-1.056-.539l.265-.583c.264.198.572.352.924.462.352.11.707.165 1.067.165.535 0 .971-.099 1.309-.297.344-.205.516-.48.516-.825 0-.308-.139-.546-.418-.715-.278-.176-.66-.264-1.144-.264h-.99v-.572h.947c.432 0 .78-.08 1.045-.242.264-.169.395-.392.395-.671 0-.308-.15-.55-.45-.726-.294-.176-.679-.264-1.156-.264a3.98 3.98 0 0 0-1.847.473l-.22-.605a4.584 4.584 0 0 1 2.144-.539c.44 0 .837.066 1.189.198.359.125.638.304.835.539a1.2 1.2 0 0 1 .309.814c0 .293-.103.554-.308.781-.198.227-.47.396-.814.506Zm3.06-2.772h.78v4.598l3.862-4.598h.692V31h-.78v-4.598L85.212 31h-.705v-5.786Zm7.573 0h.78v2.563h3.642v-2.563h.78V31h-.78v-2.552h-3.641V31h-.781v-5.786Zm16.329 5.104v2.134h-.737V31h-5.291v-5.786h.781v5.104h3.531v-5.104h.781v5.104h.935Zm1.492-5.104h.781v4.598l3.861-4.598h.693V31h-.781v-4.598L110.606 31h-.704v-5.786Zm14.558 2.882c0 .902-.297 1.61-.891 2.123-.594.513-1.433.792-2.519.836v2.079h-.759v-2.068c-1.078-.044-1.914-.323-2.508-.836-.586-.52-.88-1.232-.88-2.134 0-.895.294-1.595.88-2.101.594-.506 1.43-.781 2.508-.825v-2.332h.759v2.332c1.086.051 1.925.33 2.519.836.594.506.891 1.203.891 2.09Zm-6.787 0c0 .69.22 1.228.66 1.617.448.389 1.1.609 1.958.66v-4.51c-.85.044-1.499.26-1.947.649-.447.381-.671.91-.671 1.584Zm3.377 2.277c.858-.044 1.511-.26 1.958-.649.455-.389.682-.931.682-1.628 0-.682-.227-1.214-.682-1.595-.447-.381-1.1-.594-1.958-.638v4.51Zm8.043-5.203c.543 0 1.034.125 1.474.374.44.242.785.587 1.034 1.034.249.447.374.957.374 1.529 0 .58-.125 1.093-.374 1.54a2.67 2.67 0 0 1-1.034 1.045 2.968 2.968 0 0 1-1.474.363c-.469 0-.895-.095-1.276-.286a2.463 2.463 0 0 1-.924-.858v3.223h-.781v-7.92h.748v1.144c.235-.381.543-.675.924-.88a2.76 2.76 0 0 1 1.309-.308Zm-.055 5.192c.403 0 .77-.092 1.1-.275.33-.19.587-.458.77-.803.191-.345.286-.737.286-1.177 0-.44-.095-.829-.286-1.166a1.98 1.98 0 0 0-.77-.803 2.16 2.16 0 0 0-1.1-.286c-.411 0-.781.095-1.111.286-.323.19-.579.458-.77.803a2.407 2.407 0 0 0-.275 1.166c0 .44.092.832.275 1.177.191.345.447.612.77.803.33.183.7.275 1.111.275Zm7.002.693c-.557 0-1.06-.125-1.507-.374a2.813 2.813 0 0 1-1.056-1.056 2.991 2.991 0 0 1-.385-1.518c0-.565.128-1.07.385-1.518a2.733 2.733 0 0 1 1.056-1.045c.447-.25.95-.374 1.507-.374.557 0 1.06.125 1.507.374.447.25.796.598 1.045 1.045.257.447.385.953.385 1.518 0 .565-.128 1.07-.385 1.518-.249.447-.598.8-1.045 1.056-.447.25-.95.374-1.507.374Zm0-.693c.411 0 .777-.092 1.1-.275.33-.19.587-.458.77-.803.183-.345.275-.737.275-1.177 0-.44-.092-.832-.275-1.177a1.907 1.907 0 0 0-.77-.792 2.12 2.12 0 0 0-1.1-.286c-.411 0-.781.095-1.111.286a2.002 2.002 0 0 0-.77.792 2.471 2.471 0 0 0-.275 1.177c0 .44.092.832.275 1.177.191.345.447.612.77.803.33.183.7.275 1.111.275Zm8.291-2.354c.785.183 1.177.656 1.177 1.419 0 .506-.187.895-.561 1.166-.374.271-.931.407-1.672.407h-2.629v-5.786h2.552c.66 0 1.177.128 1.551.385.374.257.561.623.561 1.1 0 .315-.088.587-.264.814-.169.22-.407.385-.715.495Zm-2.926-.22h1.738c.447 0 .788-.084 1.023-.253.242-.169.363-.414.363-.737s-.121-.565-.363-.726c-.235-.161-.576-.242-1.023-.242h-1.738v1.958Zm1.837 2.596c.499 0 .873-.08 1.122-.242.249-.161.374-.414.374-.759 0-.345-.114-.598-.341-.759-.227-.169-.587-.253-1.078-.253h-1.914v2.013h1.837Zm6.528-3.124c.726.007 1.279.169 1.661.484.381.315.572.77.572 1.364 0 .616-.206 1.089-.616 1.419-.411.33-.998.491-1.76.484L147.339 31v-5.786h.781v2.024l1.65.022Zm3.201-2.046h.781V31h-.781v-5.786Zm-3.388 5.203c.535.007.938-.099 1.21-.319.278-.227.418-.557.418-.99 0-.425-.136-.74-.407-.946-.272-.205-.679-.312-1.221-.319l-1.463-.022v2.574l1.463.022Zm10.011.583-1.837-2.42-1.848 2.42h-.88l2.288-2.97-2.178-2.816h.88l1.738 2.266 1.738-2.266h.858l-2.178 2.816 2.31 2.97h-.891Zm8.031-5.83c.543 0 1.034.125 1.474.374.44.242.785.587 1.034 1.034.25.447.374.957.374 1.529 0 .58-.124 1.093-.374 1.54a2.67 2.67 0 0 1-1.034 1.045 2.966 2.966 0 0 1-1.474.363c-.469 0-.894-.095-1.276-.286a2.463 2.463 0 0 1-.924-.858v3.223h-.781v-7.92h.748v1.144c.235-.381.543-.675.924-.88a2.76 2.76 0 0 1 1.309-.308Zm-.055 5.192c.404 0 .77-.092 1.1-.275.33-.19.587-.458.77-.803.191-.345.286-.737.286-1.177 0-.44-.095-.829-.286-1.166a1.98 1.98 0 0 0-.77-.803 2.157 2.157 0 0 0-1.1-.286c-.41 0-.781.095-1.111.286-.322.19-.579.458-.77.803a2.407 2.407 0 0 0-.275 1.166c0 .44.092.832.275 1.177.191.345.448.612.77.803.33.183.701.275 1.111.275Zm9.675-2.013h-4.84c.044.601.275 1.089.693 1.463.418.367.946.55 1.584.55.36 0 .69-.062.99-.187.301-.132.561-.323.781-.572l.44.506a2.462 2.462 0 0 1-.968.704 3.214 3.214 0 0 1-1.265.242c-.594 0-1.122-.125-1.584-.374a2.793 2.793 0 0 1-1.067-1.056 3.002 3.002 0 0 1-.385-1.518c0-.565.121-1.07.363-1.518.25-.447.587-.796 1.012-1.045.433-.25.917-.374 1.452-.374.536 0 1.016.125 1.441.374.426.25.759.598 1.001 1.045.242.44.363.946.363 1.518l-.011.242Zm-2.794-2.508c-.557 0-1.026.18-1.408.539-.374.352-.586.814-.638 1.386h4.103c-.051-.572-.267-1.034-.649-1.386-.374-.36-.843-.539-1.408-.539Zm12.52-.627V31h-7.986v-5.786h.781v5.104h2.838v-5.104h.781v5.104h2.805v-5.104h.781Zm7.29 3.135h-4.84c.044.601.275 1.089.693 1.463.418.367.946.55 1.584.55.359 0 .689-.062.99-.187.301-.132.561-.323.781-.572l.44.506a2.47 2.47 0 0 1-.968.704 3.214 3.214 0 0 1-1.265.242c-.594 0-1.122-.125-1.584-.374a2.786 2.786 0 0 1-1.067-1.056 2.991 2.991 0 0 1-.385-1.518c0-.565.121-1.07.363-1.518a2.72 2.72 0 0 1 1.012-1.045c.433-.25.917-.374 1.452-.374.535 0 1.016.125 1.441.374.425.25.759.598 1.001 1.045.242.44.363.946.363 1.518l-.011.242Zm-2.794-2.508c-.557 0-1.027.18-1.408.539-.374.352-.587.814-.638 1.386h4.103c-.051-.572-.268-1.034-.649-1.386-.374-.36-.843-.539-1.408-.539Zm4.534-.627h.781v2.563h3.641v-2.563h.781V31h-.781v-2.552h-3.641V31h-.781v-5.786Zm7.423 0h.781v4.598l3.861-4.598h.693V31h-.781v-4.598L204.128 31h-.704v-5.786Zm7.573 0h.781v4.598l3.861-4.598h.693V31h-.781v-4.598L211.701 31h-.704v-5.786Zm2.629-.836c-.499 0-.895-.125-1.188-.374-.294-.25-.444-.601-.451-1.056h.561c.007.286.11.517.308.693.198.169.454.253.77.253.315 0 .572-.084.77-.253a.904.904 0 0 0 .319-.693h.561c-.008.455-.162.807-.462 1.056-.294.25-.69.374-1.188.374Z" fill="#2A2D46"/><g clip-path="url(#a)" fill="#3145FF"><path d="M35.69.309a1.054 1.054 0 0 0-1.49 0l-4.246 4.245c-1.172-.526-2.638-.347-3.57.587l-1.616 1.615c-.006.006-.007.014-.013.02.896.554 1.74 1.203 2.503 1.966.77.77 1.416 1.615 1.964 2.504.006-.007.015-.008.022-.015l1.615-1.615c.97-.97 1.151-2.403.595-3.579L35.69 1.8a1.054 1.054 0 0 0 0-1.491ZM26.437 11.054l-4.55 4.55c.553 1.175.374 2.61-.596 3.579l-2.983 2.982a3.163 3.163 0 1 1-4.474-4.474l2.983-2.983c.97-.97 2.404-1.149 3.578-.595l4.55-4.55c-4.553-3.787-11.318-3.596-15.586.67L3.392 16.2c-4.522 4.522-4.523 11.884 0 16.407s11.884 4.525 16.408 0l5.967-5.966c4.267-4.268 4.456-11.033.67-15.587Z"/><path d="M19.8 16.2a1.054 1.054 0 0 0-1.491 0l-2.983 2.983a1.052 1.052 0 0 0 .001 1.491c.398.4 1.09.399 1.49 0l2.983-2.983a1.054 1.054 0 0 0 0-1.491Z"/></g><defs><clipPath id="a"><path fill="#fff" d="M0 0h36v36H0z"/></clipPath></defs></svg>