<svg xmlns="http://www.w3.org/2000/svg" xmlns:xlink="http://www.w3.org/1999/xlink"><symbol id="arrow-icon"><path d="M0 9.5h20m0 0L11.25 1M20 9.5 11.25 18"/></symbol><symbol id="cart-icon"><g fill="none"><path d="M8.055 16.162h13.283a.733.733 0 0 0 .704-.531l2.93-10.254a.733.733 0 0 0-.704-.934H6.366l-.524-2.356a.733.733 0 0 0-.715-.573H.732a.732.732 0 1 0 0 1.465H4.54l2.645 11.9a2.2 2.2 0 0 0-1.325 2.016 2.2 2.2 0 0 0 2.198 2.197h13.28a.732.732 0 1 0 0-1.465H8.058a.733.733 0 0 1-.002-1.465ZM23.297 5.908l-2.512 8.79H8.645L6.69 5.907h16.606ZM7.324 21.29a2.2 2.2 0 0 0 2.197 2.196 2.2 2.2 0 0 0 2.198-2.197 2.2 2.2 0 0 0-2.198-2.197 2.2 2.2 0 0 0-2.197 2.197Zm2.197-.733a.733.733 0 0 1 0 1.465.733.733 0 0 1 0-1.465ZM17.676 21.29a2.2 2.2 0 0 0 2.197 2.196 2.2 2.2 0 0 0 2.197-2.197 2.2 2.2 0 0 0-2.197-2.197 2.2 2.2 0 0 0-2.197 2.197Zm2.197-.733a.733.733 0 0 1 0 1.465.733.733 0 0 1 0-1.465Z" fill="#EB2D66"/></g></symbol><symbol id="more-icon"><circle cx="2" cy="2" r="2"/><circle cx="10" cy="2" r="2"/><circle cx="18" cy="2" r="2"/></symbol><symbol id="slider-left-icon"><path d="M16 1 1 16l15 15"/></symbol><symbol id="slider-right-icon"><path d="m1 1 15 15L1 31"/></symbol><symbol id="up-arrow-icon"><g fill="none"><path d="M8.5 21V1m0 0L1 8.925M8.5 1 16 8.925" stroke="#fff"/></g></symbol></svg>